# xmcd
#
# Track frame offsets:
#	150
#	19725
#	34800
#	52350
#	80250
#	91725
#	111375
#	128700
#	147600
#	163125
#	178275
#	195975
#	212850
#	228600
#	246225
#	264075
#	281400
#
# Disc length: 3772 seconds
#
# Revision: 1
# Processed by: cddbd v1.5.2PL0 Copyright (c) Steve Scherf et al.
# Submitted via: audiograbber 1.83.01
#
DISCID=f90eba11
DTITLE=Big Country - BCY11
DYEAR=1900
DGENRE=Karaoke
TTITLE0=Martina McBride - Anyway
TTITLE1=Sugarland - Settlin'
TTITLE2=John Mellencamp - Our Country
TTITLE3=Keith Urban - Stupid Boy (Album Version)
TTITLE4=Miranda Lambert - Crazy Ex Girlfriend
TTITLE5=Faith Hill - Stealing Kisses
TTITLE6=Gretchen Wilson - Come To Bed (Female Solo)
TTITLE7=Tim McGraw - I've Got Friends That Do
TTITLE8=Montgomery Gentry - Some People Change
TTITLE9=Jason Aldean - Amarillo Sky
TTITLE10=Lonestar - Mountains
TTITLE11=Kellie Pickler - Red High Heels
TTITLE12=Eric Church - Two Pink Lines
TTITLE13=Rodney Atkins - Watching You
TTITLE14=Craig Morgan - Little Bit Of Life
TTITLE15=Gretchen Wilson and John Rich - Come To Bed (Duet)
TTITLE16=Blank - Blank
EXTD=
EXTT0=
EXTT1=
EXTT2=
EXTT3=
EXTT4=
EXTT5=
EXTT6=
EXTT7=
EXTT8=
EXTT9=
EXTT10=
EXTT11=
EXTT12=
EXTT13=
EXTT14=
EXTT15=
EXTT16=
PLAYORDER=
